<svg width="4" height="4" viewBox="0 0 4 4" version="1.1" xmlns="http://www.w3.org/2000/svg"><title>Artboard 1</title><g id="Page-1" stroke="none" stroke-width="1" fill="none" fill-rule="evenodd"><g id="Artboard-1" fill="#FFF"><path d="M3.96 3.11v-.28c-.47 0-.85-.38-.85-.85s.38-.85.85-.85V.85c-.47 0-.85-.38-.85-.85h-.28c0 .47-.38.85-.85.85S1.13.47 1.13 0H.85C.85.47.47.85 0 .85v.28c.47 0 .85.38.85.85s-.38.85-.85.85v.28c.47 0 .85.38.85.85h.28c0-.47.38-.85.85-.85s.85.38.85.85h.28c0-.47.38-.85.85-.85zm-1.98-.28c-.47 0-.85-.38-.85-.85s.38-.85.85-.85.85.38.85.85-.38.85-.85.85z" id="Imported-Layers"/></g></g></svg>