<svg width="1440" height="40" viewBox="0 0 1440 40" version="1.1" xmlns="http://www.w3.org/2000/svg"><title>browser_toolbar</title><g id="Page-1" stroke="none" stroke-width="1" fill="none" fill-rule="evenodd"><g id="browser_toolbar"><g id="Group"><path id="Rectangle-11-Copy" fill="#DCDCDC" d="M0 0h1440v40H0z"/><circle id="Oval-1-Copy-6" fill="#AAA" cx="18" cy="20" r="6"/><circle id="Oval-1-Copy-7" fill="#AAA" cx="38" cy="20" r="6"/><circle id="Oval-1-Copy-8" fill="#AAA" cx="58" cy="20" r="6"/><rect id="Path-Copy" fill="#FAFAFA" x="77" y="9" width="26" height="22" rx="2"/><path d="M86.756 19.823l-.707.707.706.707 5.013 5.013 1.414-1.414-4.328-4.306 4.388-4.366-1.414-1.414-5.074 5.073z" id="Rectangle-1-Copy-5" fill="#AAA"/><rect id="Path-Copy-2" fill="#FAFAFA" x="105" y="9" width="26" height="22" rx="2"/><path d="M120.89 21.177l.707-.707-.707-.707-5.013-5.013-1.414 1.414 4.3 4.306-4.36 4.366 1.414 1.414 5.073-5.073z" id="Rectangle-1-Copy-6" fill="#AAA"/><rect id="Path-Copy-3" fill="#FAFAFA" x="138" y="9" width="26" height="22" rx="2"/><path d="M155.243 15.757c-2.344-2.343-6.142-2.343-8.486 0-2.343 2.344-2.343 6.142 0 8.486 2.344 2.343 6.142 2.343 8.486 0l-1.415-1.415c-1.562 1.563-4.094 1.563-5.656 0-1.563-1.562-1.563-4.094 0-5.656 1.562-1.563 4.094-1.563 5.656 0l1.415-1.415zM157 14v5h-5l5-5z" id="Rectangle-1-Copy-7" fill="#AAA"/><g id="Rectangle-8-+-Rectangle-8-Copy-+-Rectangle-8-Copy-2-Copy" fill="#AAA"><path d="M1402 11.2c0-1.215.987-2.2 2.194-2.2h21.612c1.212 0 2.194.977 2.194 2.2 0 1.215-.987 2.2-2.194 2.2h-21.612c-1.212 0-2.194-.977-2.194-2.2zm0 17.6c0-1.215.987-2.2 2.194-2.2h21.612c1.212 0 2.194.977 2.194 2.2 0 1.215-.987 2.2-2.194 2.2h-21.612c-1.212 0-2.194-.977-2.194-2.2zm0-8.8c0-1.215.987-2.2 2.194-2.2h21.612c1.212 0 2.194.977 2.194 2.2 0 1.215-.987 2.2-2.194 2.2h-21.612c-1.212 0-2.194-.977-2.194-2.2z" id="Rectangle-8"/></g><rect id="Path-Copy-4" fill="#FAFAFA" x="333" y="9" width="774" height="22" rx="2"/></g><path d="M737.06 23.52l-6.6-6.52-6.602 6.52-6.6-6.52-6.602 6.52-6.6-6.52-6.602 6.52-6.602-6.52-6.6 6.52L677.65 17l-6.6 6.52-6.602-6.52-6.6 6.52-6.6-6.52-6.602 6.52-6.6-6.52-6.602 6.52-6.6-6.52-6.602 6.52-6.6-6.52-6.602 6.52-6.6-6.52-6.603 6.52-6.6-6.52-6.602 6.52-6.6-6.52-6.602 6.52-6.6-6.52-6.6 6.52L545.63 17l-6.6 6.52-6.6-6.52-6.602 6.52-6.6-6.52-6.602 6.52-6.6-6.52-6.603 6.52-6.6-6.52-6.602 6.52-6.6-6.52-6.6 6.52-6.602-6.52-6.6 6.52-6.6-6.52-6.602 6.52-6.6-6.52-6.602 6.52-6.6-6.52-6.602 6.52-6.6-6.52-6.603 6.52-6.602-6.52-6.6 6.52-6.602-6.52-6.6 6.52-6.602-6.52-6.6 6.52-6.6-6.52-6.602 6.52-6.6-6.52L341 23.52" id="Imported-Layers" stroke="#DCDCDC" stroke-width="2"/></g></g></svg>