<svg width="1440" height="40" viewBox="0 0 1440 40" version="1.1" xmlns="http://www.w3.org/2000/svg"><title>browser_toolbar</title><g id="Page-1" stroke="none" stroke-width="1" fill="none" fill-rule="evenodd"><g id="browser_toolbar"><g id="Group" transform="translate(11 9)"><circle id="Oval-1-Copy-6" fill="#AAA" cx="6" cy="11" r="6"/><circle id="Oval-1-Copy-7" fill="#AAA" cx="26" cy="11" r="6"/><circle id="Oval-1-Copy-8" fill="#AAA" cx="46" cy="11" r="6"/><rect id="Path-Copy" fill="#FAFAFA" x="65" y="0" width="26" height="22" rx="2"/><path d="M74.756 10.823l-.707.707.706.707 5.013 5.013 1.414-1.414-4.328-4.306 4.388-4.366L79.83 5.75l-5.074 5.073z" id="Rectangle-1-Copy-5" fill="#AAA"/><rect id="Path-Copy-2" fill="#FAFAFA" x="93" y="0" width="26" height="22" rx="2"/><path d="M108.89 12.177l.707-.707-.707-.707-5.013-5.013-1.414 1.414 4.3 4.306-4.36 4.366 1.414 1.414 5.073-5.073z" id="Rectangle-1-Copy-6" fill="#AAA"/><rect id="Path-Copy-3" fill="#FAFAFA" x="126" y="0" width="26" height="22" rx="2"/><path d="M143.243 6.757c-2.344-2.343-6.142-2.343-8.486 0-2.343 2.344-2.343 6.142 0 8.486 2.344 2.343 6.142 2.343 8.486 0l-1.415-1.415c-1.562 1.563-4.094 1.563-5.656 0-1.563-1.562-1.563-4.094 0-5.656 1.562-1.563 4.094-1.563 5.656 0l1.415-1.415zM145 5v5h-5l5-5z" id="Rectangle-1-Copy-7" fill="#AAA"/><g id="Rectangle-8-+-Rectangle-8-Copy-+-Rectangle-8-Copy-2-Copy" fill="#AAA"><path d="M1390 2.2c0-1.215.987-2.2 2.194-2.2h21.612c1.212 0 2.194.977 2.194 2.2 0 1.215-.987 2.2-2.194 2.2h-21.612c-1.212 0-2.194-.977-2.194-2.2zm0 17.6c0-1.215.987-2.2 2.194-2.2h21.612c1.212 0 2.194.977 2.194 2.2 0 1.215-.987 2.2-2.194 2.2h-21.612c-1.212 0-2.194-.977-2.194-2.2zm0-8.8c0-1.215.987-2.2 2.194-2.2h21.612c1.212 0 2.194.977 2.194 2.2 0 1.215-.987 2.2-2.194 2.2h-21.612c-1.212 0-2.194-.977-2.194-2.2z" id="Rectangle-8"/></g></g></g></g></svg>