<svg version="1.1" id="Layer_1" xmlns="http://www.w3.org/2000/svg" x="0" y="0" viewBox="0 0 46 46" xml:space="preserve"><path fill="#FF7825" d="M21.5 38.2v-21L6 38.8v-5l18.5-26v21.1L40 7.2v5l-18.5 26zm11.7-11.3l-1.9 2.7c.6 1.2.9 2.6.9 4.1 0 5.1-4.1 9.2-9.2 9.2s-9.2-4.1-9.2-9.2v-.8l-2.7 3.7C12.4 42 17.3 46 23 46c6.8 0 12.2-5.5 12.2-12.2 0-2.6-.7-4.9-2-6.9zM12.8 19l1.9-2.7c-.6-1.2-.9-2.6-.9-4.1C13.7 7.1 17.9 3 23 3s9.2 4.1 9.2 9.2v.8l2.7-3.7C33.5 3.9 28.7 0 23 0c-6.8 0-12.2 5.5-12.2 12.2-.1 2.5.7 4.9 2 6.8zM46 0H32c1.2.9 2.2 1.9 3.1 3H43v40h-7.5c-.8 1.1-1.7 2.1-2.8 3H46V0zM10.5 43H3V3h7.9c.9-1.1 1.9-2.1 3.1-3H0v46h13.3c-1-.9-2-1.9-2.8-3z"/></svg>