<svg width="167" height="19" viewBox="0 0 167 19" version="1.1" xmlns="http://www.w3.org/2000/svg"><title>Artboard 1</title><g id="Page-1" stroke="none" stroke-width="1" fill="none" fill-rule="evenodd"><g id="Artboard-1" fill="#3D3D3D"><g id="Imported-Layers"><path d="M9.05 3.552v2.043L7.878 7.23l-3.342 4.66-2.723 3.793H.42l8.63-12.13" id="Fill-1"/><path d="M82.984 15.448V7.23l-6.065 8.453h-1.393l8.63-12.13v8.256l6.066-8.493h1.392l-8.63 12.13" id="Fill-2"/><path d="M87.562 11.026l-.743 1.057c.233.47.35 1.017.35 1.604 0 1.996-1.603 3.6-3.6 3.6-1.995 0-3.6-1.604-3.6-3.6v-.313l-1.056 1.448c.51 2.113 2.426 3.678 4.657 3.678 2.662 0 4.775-2.152 4.775-4.774 0-1.017-.274-1.917-.783-2.7" id="Fill-3"/><path d="M79.58 7.935l.743-1.057c-.235-.47-.352-1.017-.352-1.604-.038-1.996 1.605-3.6 3.6-3.6 1.997 0 3.6 1.604 3.6 3.6v.313l1.057-1.448C87.68 2.025 85.8.5 83.57.5c-2.66 0-4.773 2.152-4.773 4.774-.04.978.274 1.917.783 2.66" id="Fill-4"/><path d="M27.826 3.553v10.244l-1.174 1.65V7.232l-6.065 8.453h-1.39l8.63-12.13" id="Fill-5"/><path d="M45.43 15.448V7.23l-6.065 8.453h-1.392l8.63-12.13v8.256l6.066-8.493h1.39l-8.63 12.13" id="Fill-6"/><path d="M64.207 15.448V7.23l-6.065 8.453H56.75l8.63-12.13v8.256l6.066-8.493h1.392l-8.63 12.13" id="Fill-7"/><path d="M68.785 11.026l-.743 1.057c.235.47.352 1.017.352 1.604 0 1.996-1.604 3.6-3.6 3.6s-3.6-1.604-3.6-3.6v-.313l-1.057 1.448c.51 2.113 2.427 3.678 4.657 3.678 2.66 0 4.774-2.152 4.774-4.774 0-1.017-.274-1.917-.783-2.7" id="Fill-8"/><path d="M82.984 15.448V7.23l-6.065 8.453h-1.393l8.63-12.13v8.256l6.066-8.493h1.392l-8.63 12.13" id="Fill-9"/><path d="M87.562 11.026l-.743 1.057c.233.47.35 1.017.35 1.604 0 1.996-1.603 3.6-3.6 3.6-1.995 0-3.6-1.604-3.6-3.6v-.313l-1.056 1.448c.51 2.113 2.426 3.678 4.657 3.678 2.662 0 4.775-2.152 4.775-4.774 0-1.017-.274-1.917-.783-2.7" id="Fill-10"/><path d="M101.76 15.448V7.23l-6.064 8.453h-1.393l8.632-12.13v8.256L109 3.316h1.392l-8.63 12.13" id="Fill-11"/><path d="M98.357 7.935l.743-1.057c-.235-.47-.352-1.017-.352-1.604-.04-1.996 1.604-3.6 3.6-3.6s3.6 1.604 3.6 3.6v.313l1.056-1.448c-.548-2.114-2.426-3.64-4.656-3.64-2.66 0-4.774 2.152-4.774 4.774-.04.978.274 1.917.783 2.66" id="Fill-12"/><path d="M101.76 15.448V7.23l-6.064 8.453h-1.393l8.632-12.13v8.256L109 3.316h1.392l-8.63 12.13" id="Fill-13"/><path d="M120.538 15.448V7.23l-6.065 8.453h-1.392l8.632-12.13v8.256l6.065-8.493h1.392l-8.632 12.13" id="Fill-14"/><path d="M120.538 15.448V7.23l-6.065 8.453h-1.392l8.632-12.13v8.256l6.065-8.493h1.392l-8.632 12.13" id="Fill-15"/><path d="M147.944 3.317l-8.628 12.13V5.205l1.174-1.652v8.257l6.065-8.493h1.39" id="Fill-16"/><path d="M166.723 3.317l-8.632 12.13v-1.995l6.684-9.356.556-.78h1.393" id="Fill-17"/></g></g></g></svg>