<svg width="841" height="638" viewBox="0 0 841 638" version="1.1" xmlns="http://www.w3.org/2000/svg"><title>Imported Layers</title><g id="Page-1" stroke="none" stroke-width="1" fill="none" fill-rule="evenodd"><path d="M155.556 490.313c-2.34 6.844-11.263 14.295-28.33 14.295-52.936 0-116.267-43.663-116.267-138.09 0-87.152 65.93-161.482 147.455-161.482 55.014 0 86.463 41.323 86.463 85.332 0 47.214-33.615 88.104-93.394 88.104-59.78 0-120.425-57.263-120.425-151.085 0-86.285 82.39-175.342 193.372-175.342 103.27 0 157.073 43.575 157.073 114.787 0 75.802-50.856 143.894-133.94 143.894-70.35 0-98.94-56.743-98.94-109.848 0-88.278 71.302-178.46 173.88-178.46 39.593 0 46.697 19.664 46.697 38.55 0 88.277-196.492 189.983-196.492 284.238 0 27.982 13.602 43.662 36.474 43.662 96.254 3.985 285.122-209.215 285.122-256.43 0-7.276-3.206-13.6-10.397-13.6-63.505 0-140.785 487.82-357.55 487.82-45.572 0-80.66-19.75-80.66-62.46 0-60.815 78.407-87.757 178.3-108.55 89.58-18.625 200.996-61.68 292.485-171.27-26.078 27.463-41.153 46.695-41.153 89.837 0 39.85 28.33 66.36 70.783 66.36 48.17 0 102.578-35.605 102.578-112.448 0-62.807-37.254-77.015-62.206-77.015-36.56 0-66.883 24.69-66.883 64.02 0 37.772 26.164 65.408 74.594 65.408 68.097 0 129.695-47.3 129.695-129.255 0-93.562-114.967-223.076-279.663-223.076-108.556 0-141.91 56.83-141.91 89.056 0 152.385 457.008 8.577 457.008 141.21 0 42.016-45.918 64.194-80.486 64.194-66.883 0-122.244-31.62-122.244-108.463 0-50.333 46.957-101.185 123.11-101.185 69.483 0 150.402 51.805 150.402 184.958 0 134.625-107.083 260.674-282.956 260.674-88.802 0-165.476-62.115-267.014-62.115-79.88 0-105.61 42.535-105.61 76.755 0 35.085 25.124 76.235 98.852 76.235 113.754 0 216.765-155.417 305.568-155.417 47.564 0 69.57 32.14 69.57 59.083 0 44.788-56.748 86.978-138.013 86.978-103.704 0-155.946-35.172-155.946-92.61 0-42.882 33.79-64.193 80.4-64.193 113.32 0 139.312 117.993 236.172 117.993 75.287 0 118.172-53.278 118.172-112.36 0-62.202-37.513-98.934-83.084-98.934-19.84 0-31.883 9.01-31.883 23.043 0 11.002 6.238 18.106 18.107 18.106 8.924 0 20.273-10.83 13.602-24.345" id="Imported-Layers" stroke="#000"/></g></svg>