<svg width="542" height="371" viewBox="0 0 542 371" version="1.1" xmlns="http://www.w3.org/2000/svg"><title>Slice 1</title><g id="Page-1" stroke="none" stroke-width="1" fill="none" fill-rule="evenodd"><g id="Imported-Layers"><path d="M56.208 120.056c-12.5 13.195-65.972 40.278-52.083-22.222C18.013 35.334 67.32 4.78 95.097 2c27.777-2.777 62.873 10.71 14.956 105.154-47.916 94.445-25.373 119.152-1.067 119.152 41.514 0 94.938-56.382 125.368-141.993 18.718-52.662 18.39-62.612 15.02-62.612-5.542 0-13.27 18.53-32.055 73.356C164 250.666 157.332 367.973 65.93 367.973c-44.597 0-53.263-24.293-53.263-38.64C12.667 285.578 66.87 286.5 133 252c57.106-29.793 124.465-95.112 157.25-129.75-29.5 22.5-39.077 48.24-39.077 69.79 0 16.71 17.494 30.1 39.81 30.1 35.793 0 61.32-18.23 61.32-48.23 0-29.91-4.79-55.41-28.303-55.41-20.5 0-28 15.665-28 27.306 0 14.375 9.75 20.694 31 20.694 20.833 0 162.92-37.63 162.92-101.872 0-31.635-34.237-50.76-111.88-50.76-35.737 0-57.39 11.59-57.39 26.824 0 49.924 218.184 79.808 218.184 174.31 0 16.84-7.933 33.197-29.848 47.415C404.77 330.03 352.473 329.703 290 329.703c-57.667 0-80.737-20.17-80.737-34.473 0-12.92 19.56-24.66 67.795-25.908 102.087-2.644 93.04 66.012 137.483 66.707 44.446.693 80.773-96.054-4.643-93.276" id="Fill-1" fill="#FFF"/><path d="M56.208 120.056c-12.5 13.195-65.972 40.278-52.083-22.222C18.013 35.334 67.32 4.78 95.097 2c27.777-2.777 62.873 10.71 14.956 105.154-47.916 94.445-25.373 119.152-1.067 119.152 41.514 0 94.938-56.382 125.368-141.993 18.718-52.662 18.39-62.612 15.02-62.612-5.542 0-13.27 18.53-32.055 73.356C164 250.666 157.332 367.973 65.93 367.973c-44.597 0-53.263-24.293-53.263-38.64C12.667 285.578 66.87 286.5 133 252c57.106-29.793 124.465-95.112 157.25-129.75-29.5 22.5-39.077 48.24-39.077 69.79 0 16.71 17.494 30.1 39.81 30.1 35.793 0 61.32-18.23 61.32-48.23 0-29.91-4.79-55.41-28.303-55.41-20.5 0-28 15.665-28 27.306 0 14.375 9.75 20.694 31 20.694 20.833 0 162.92-37.63 162.92-101.872 0-31.635-34.237-50.76-111.88-50.76-35.737 0-57.39 11.59-57.39 26.824 0 49.924 218.184 79.808 218.184 174.31 0 16.84-7.933 33.197-29.848 47.415C404.77 330.03 352.473 329.703 290 329.703c-57.667 0-80.737-20.17-80.737-34.473 0-12.92 19.56-24.66 67.795-25.908 102.087-2.644 93.04 66.012 137.483 66.707 44.446.693 80.773-96.054-4.643-93.276" id="Stroke-2" stroke="#1A1918" stroke-width="3" stroke-linecap="round" stroke-linejoin="round"/></g></g></svg>