<?xml version="1.0" encoding="UTF-8" standalone="no"?>
<svg width="4px" height="4px" viewBox="0 0 4 4" version="1.1" xmlns="http://www.w3.org/2000/svg" xmlns:xlink="http://www.w3.org/1999/xlink" xmlns:sketch="http://www.bohemiancoding.com/sketch/ns">
    <!-- Generator: Sketch 3.3.2 (12043) - http://www.bohemiancoding.com/sketch -->
    <title>Artboard 1</title>
    <desc>Created with Sketch.</desc>
    <defs></defs>
    <g id="Page-1" stroke="none" stroke-width="1" fill="none" fill-rule="evenodd" sketch:type="MSPage">
        <g id="Artboard-1" sketch:type="MSArtboardGroup" fill="#FFFFFF">
            <path d="M3.96,3.109 L3.96,2.831 C3.49,2.831 3.109,2.45 3.109,1.98 C3.109,1.51 3.49,1.129 3.96,1.129 L3.96,0.851 C3.49,0.851 3.109,0.47 3.109,0 L2.831,0 C2.831,0.47 2.45,0.851 1.98,0.851 C1.51,0.851 1.129,0.47 1.129,0 L0.851,0 C0.851,0.47 0.47,0.851 0,0.851 L0,1.129 C0.47,1.129 0.851,1.51 0.851,1.98 C0.851,2.45 0.47,2.831 0,2.831 L0,3.109 C0.47,3.109 0.851,3.49 0.851,3.96 L1.129,3.96 C1.129,3.49 1.51,3.109 1.98,3.109 C2.45,3.109 2.831,3.49 2.831,3.96 L3.109,3.96 C3.109,3.49 3.49,3.109 3.96,3.109 L3.96,3.109 Z M1.98,2.831 C1.51,2.831 1.129,2.45 1.129,1.98 C1.129,1.51 1.51,1.129 1.98,1.129 C2.45,1.129 2.831,1.51 2.831,1.98 C2.831,2.45 2.45,2.831 1.98,2.831 L1.98,2.831 Z" id="Imported-Layers" sketch:type="MSShapeGroup"></path>
        </g>
    </g>
</svg>