<?xml version="1.0" encoding="UTF-8" standalone="no"?>
<svg width="1440px" height="40px" viewBox="0 0 1440 40" version="1.1" xmlns="http://www.w3.org/2000/svg" xmlns:xlink="http://www.w3.org/1999/xlink" xmlns:sketch="http://www.bohemiancoding.com/sketch/ns">
    <!-- Generator: Sketch 3.3.2 (12043) - http://www.bohemiancoding.com/sketch -->
    <title>browser_toolbar</title>
    <desc>Created with Sketch.</desc>
    <defs></defs>
    <g id="Page-1" stroke="none" stroke-width="1" fill="none" fill-rule="evenodd" sketch:type="MSPage">
        <g id="browser_toolbar" sketch:type="MSArtboardGroup">
            <g id="Group" sketch:type="MSLayerGroup">
                <rect id="Rectangle-11-Copy" fill="#DCDCDC" sketch:type="MSShapeGroup" x="0" y="0" width="1440" height="40"></rect>
                <circle id="Oval-1-Copy-6" fill="#AAAAAA" sketch:type="MSShapeGroup" cx="18" cy="20" r="6"></circle>
                <circle id="Oval-1-Copy-7" fill="#AAAAAA" sketch:type="MSShapeGroup" cx="38" cy="20" r="6"></circle>
                <circle id="Oval-1-Copy-8" fill="#AAAAAA" sketch:type="MSShapeGroup" cx="58" cy="20" r="6"></circle>
                <rect id="Path-Copy" fill="#FAFAFA" sketch:type="MSShapeGroup" x="77" y="9" width="26" height="22" rx="2"></rect>
                <path d="M86.7562007,19.8230354 L86.049094,20.5301421 L86.7562007,21.2372489 L91.7693014,26.2503496 L93.183515,24.836136 L88.8558209,20.5301422 L93.2437993,16.163864 L91.8295857,14.7496504 L86.7562007,19.8230354 Z" id="Rectangle-1-Copy-5" fill="#AAAAAA" sketch:type="MSShapeGroup"></path>
                <rect id="Path-Copy-2" fill="#FAFAFA" sketch:type="MSShapeGroup" x="105" y="9" width="26" height="22" rx="2"></rect>
                <path d="M120.890246,21.1769646 L121.597353,20.4698579 L120.890246,19.7627511 L115.877145,14.7496504 L114.462932,16.163864 L118.762499,20.4698578 L114.402647,24.836136 L115.816861,26.2503496 L120.890246,21.1769646 Z" id="Rectangle-1-Copy-6" fill="#AAAAAA" sketch:type="MSShapeGroup"></path>
                <rect id="Path-Copy-3" fill="#FAFAFA" sketch:type="MSShapeGroup" x="138" y="9" width="26" height="22" rx="2"></rect>
                <path d="M155.242641,15.7573593 C152.899495,13.4142136 149.100505,13.4142136 146.757359,15.7573593 C144.414214,18.1005051 144.414214,21.8994949 146.757359,24.2426407 C149.100505,26.5857864 152.899495,26.5857864 155.242641,24.2426407 L153.828427,22.8284271 C152.26633,24.3905243 149.73367,24.3905243 148.171573,22.8284271 C146.609476,21.26633 146.609476,18.73367 148.171573,17.1715729 C149.73367,15.6094757 152.26633,15.6094757 153.828427,17.1715729 L155.242641,15.7573593 Z M157,14 L157,19 L152,19 L157,14 Z" id="Rectangle-1-Copy-7" fill="#AAAAAA" sketch:type="MSShapeGroup"></path>
                <g id="Rectangle-8-+-Rectangle-8-Copy-+-Rectangle-8-Copy-2-Copy" transform="translate(1402.000000, 9.000000)" fill="#AAAAAA" sketch:type="MSShapeGroup">
                    <path d="M0,2.20000005 C0,0.984973572 0.987482071,0 2.19433763,0 L23.8056624,0 C25.0175616,0 26,0.97650263 26,2.20000005 C26,3.41502652 25.0125179,4.4000001 23.8056624,4.4000001 L2.19433763,4.4000001 C0.982438419,4.4000001 0,3.42349746 0,2.20000005 Z M0,19.8 C0,18.5849735 0.987482071,17.5999999 2.19433763,17.5999999 L23.8056624,17.5999999 C25.0175616,17.5999999 26,18.5765025 26,19.8 C26,21.0150264 25.0125179,22 23.8056624,22 L2.19433763,22 C0.982438419,22 0,21.0234974 0,19.8 Z M0,11 C0,9.78497352 0.987482071,8.79999995 2.19433763,8.79999995 L23.8056624,8.79999995 C25.0175616,8.79999995 26,9.77650258 26,11 C26,12.2150265 25.0125179,13.2 23.8056624,13.2 L2.19433763,13.2 C0.982438419,13.2 0,12.2234974 0,11 Z" id="Rectangle-8"></path>
                </g>
                <rect id="Path-Copy-4" fill="#FAFAFA" sketch:type="MSShapeGroup" x="333" y="9" width="774" height="22" rx="2"></rect>
            </g>
            <path d="M737.060391,23.5211667 L730.45926,17 L723.85813,23.5211667 L717.257,17 L710.65587,23.5211667 L704.05474,17 L697.453609,23.5211667 L690.852479,17 L684.251349,23.5211667 L677.650219,17 L671.049088,23.5211667 L664.447958,17 L657.848684,23.5211667 L651.247553,17 L644.646423,23.5211667 L638.045293,17 L631.444163,23.5211667 L624.843033,17 L618.241902,23.5211667 L611.640772,17 L605.039642,23.5211667 L598.438512,17 L591.837381,23.5211667 L585.236251,17 L578.635121,23.5211667 L572.033991,17 L565.43286,23.5211667 L558.833586,17 L552.232456,23.5211667 L545.631326,17 L539.030195,23.5211667 L532.429065,17 L525.827935,23.5211667 L519.226805,17 L512.625674,23.5211667 L506.024544,17 L499.423414,23.5211667 L492.822284,17 L486.221153,23.5211667 L479.620023,17 L473.018893,23.5211667 L466.417763,17 L459.818488,23.5211667 L453.217358,17 L446.616228,23.5211667 L440.015098,17 L433.413967,23.5211667 L426.812837,17 L420.211707,23.5211667 L413.610577,17 L407.009447,23.5211667 L400.408316,17 L393.807186,23.5211667 L387.206056,17 L380.604926,23.5211667 L374.003795,17 L367.402665,23.5211667 L360.803391,17 L354.20226,23.5211667 L347.60113,17 L341,23.5211667" id="Imported-Layers" stroke="#DCDCDC" stroke-width="2" sketch:type="MSShapeGroup"></path>
        </g>
    </g>
</svg>