<?xml version="1.0" encoding="utf-8"?>
<!-- Generator: Adobe Illustrator 17.1.0, SVG Export Plug-In . SVG Version: 6.00 Build 0)  -->
<!DOCTYPE svg PUBLIC "-//W3C//DTD SVG 1.1//EN" "http://www.w3.org/Graphics/SVG/1.1/DTD/svg11.dtd">
<svg version="1.1" id="Layer_1" xmlns="http://www.w3.org/2000/svg" xmlns:xlink="http://www.w3.org/1999/xlink" x="0px" y="0px"
	 viewBox="0 0 46 46" enable-background="new 0 0 46 46" xml:space="preserve">
<path fill="#FF7825" d="M21.5,38.2V17.2L6,38.8v-5l18.5-26v21.1L40,7.2v5L21.5,38.2z M33.2,26.9l-1.9,2.7c0.6,1.2,0.9,2.6,0.9,4.1
	c0,5.1-4.1,9.2-9.2,9.2c-5.1,0-9.2-4.1-9.2-9.2c0-0.3,0-0.5,0-0.8l-2.7,3.7v0C12.4,42,17.3,46,23,46c6.8,0,12.2-5.5,12.2-12.2
	C35.2,31.2,34.5,28.9,33.2,26.9z M12.8,19l1.9-2.7c-0.6-1.2-0.9-2.6-0.9-4.1C13.7,7.1,17.9,3,23,3c5.1,0,9.2,4.1,9.2,9.2
	c0,0.3,0,0.5,0,0.8l2.7-3.7v0C33.5,3.9,28.7,0,23,0c-6.8,0-12.2,5.5-12.2,12.2C10.7,14.7,11.5,17.1,12.8,19z M46,0L46,0L46,0L32,0
	c1.2,0.9,2.2,1.9,3.1,3H43v40h-7.5c-0.8,1.1-1.7,2.1-2.8,3H46v0h0V0z M10.5,43H3v0l0,0v-5l0,0V3h7.9c0.9-1.1,1.9-2.1,3.1-3H0v0h0v46
	h0v0h13.3C12.3,45.1,11.3,44.1,10.5,43z"/>
</svg>
