<?xml version="1.0" encoding="UTF-8" standalone="no"?>
<svg width="297px" height="19px" viewBox="0 0 297 19" version="1.1" xmlns="http://www.w3.org/2000/svg" xmlns:xlink="http://www.w3.org/1999/xlink" xmlns:sketch="http://www.bohemiancoding.com/sketch/ns">
    <!-- Generator: Sketch 3.3.2 (12043) - http://www.bohemiancoding.com/sketch -->
    <title>Artboard 1 Copy 3</title>
    <desc>Created with Sketch.</desc>
    <defs></defs>
    <g id="Page-1" stroke="none" stroke-width="1" fill="none" fill-rule="evenodd" sketch:type="MSPage">
        <g id="Artboard-1-Copy-3" sketch:type="MSArtboardGroup" fill="#3d3d3d">
            <g id="Imported-Layers" sketch:type="MSLayerGroup" transform="translate(113.000000, 0.000000)">
                <path d="M9.051,3.552 L9.051,5.595 L7.877,7.23 L4.535,11.891 L1.812,15.683 L0.419,15.683 L9.051,3.552" id="Fill-1" sketch:type="MSShapeGroup"></path>
                <path d="M82.984,15.448 L82.984,7.23 L76.919,15.683 L75.527,15.683 L84.158,3.552 L84.158,11.809 L90.223,3.317 L91.615,3.317 L82.984,15.448" id="Fill-2" sketch:type="MSShapeGroup"></path>
                <path d="M87.562,11.026 L86.819,12.083 C87.053,12.552 87.171,13.1 87.171,13.687 C87.171,15.683 85.567,17.287 83.571,17.287 C81.575,17.287 79.971,15.683 79.971,13.687 L79.971,13.374 L78.914,14.822 C79.423,16.935 81.34,18.5 83.571,18.5 C86.232,18.5 88.345,16.348 88.345,13.726 C88.345,12.709 88.071,11.809 87.562,11.026" id="Fill-3" sketch:type="MSShapeGroup"></path>
                <path d="M79.58,7.935 L80.323,6.878 C80.088,6.409 79.971,5.861 79.971,5.274 C79.932,3.278 81.575,1.674 83.571,1.674 C85.567,1.674 87.171,3.278 87.171,5.274 L87.171,5.587 L88.227,4.139 C87.68,2.026 85.801,0.5 83.571,0.5 C80.91,0.5 78.797,2.652 78.797,5.274 C78.758,6.252 79.071,7.191 79.58,7.935" id="Fill-4" sketch:type="MSShapeGroup"></path>
                <path d="M27.826,3.553 L27.826,13.797 L26.652,15.448 L26.652,7.231 L20.587,15.683 L19.197,15.683 L27.826,3.553" id="Fill-5" sketch:type="MSShapeGroup"></path>
                <path d="M45.43,15.448 L45.43,7.23 L39.365,15.683 L37.973,15.683 L46.604,3.552 L46.604,11.809 L52.669,3.317 L54.061,3.317 L45.43,15.448" id="Fill-6" sketch:type="MSShapeGroup"></path>
                <path d="M64.207,15.448 L64.207,7.23 L58.142,15.683 L56.75,15.683 L65.381,3.552 L65.381,11.809 L71.446,3.317 L72.838,3.317 L64.207,15.448" id="Fill-7" sketch:type="MSShapeGroup"></path>
                <path d="M68.785,11.026 L68.042,12.083 C68.277,12.552 68.394,13.1 68.394,13.687 C68.394,15.683 66.79,17.287 64.794,17.287 C62.798,17.287 61.194,15.683 61.194,13.687 L61.194,13.374 L60.137,14.822 C60.646,16.935 62.564,18.5 64.794,18.5 C67.455,18.5 69.568,16.348 69.568,13.726 C69.568,12.709 69.294,11.809 68.785,11.026" id="Fill-8" sketch:type="MSShapeGroup"></path>
                <path d="M82.984,15.448 L82.984,7.23 L76.919,15.683 L75.527,15.683 L84.158,3.552 L84.158,11.809 L90.223,3.317 L91.615,3.317 L82.984,15.448" id="Fill-9" sketch:type="MSShapeGroup"></path>
                <path d="M87.562,11.026 L86.819,12.083 C87.053,12.552 87.171,13.1 87.171,13.687 C87.171,15.683 85.567,17.287 83.571,17.287 C81.575,17.287 79.971,15.683 79.971,13.687 L79.971,13.374 L78.914,14.822 C79.423,16.935 81.34,18.5 83.571,18.5 C86.232,18.5 88.345,16.348 88.345,13.726 C88.345,12.709 88.071,11.809 87.562,11.026" id="Fill-10" sketch:type="MSShapeGroup"></path>
                <path d="M101.761,15.448 L101.761,7.23 L95.696,15.683 L94.303,15.683 L102.935,3.552 L102.935,11.809 L109,3.317 L110.392,3.317 L101.761,15.448" id="Fill-11" sketch:type="MSShapeGroup"></path>
                <path d="M98.357,7.935 L99.1,6.878 C98.865,6.409 98.748,5.861 98.748,5.274 C98.709,3.278 100.352,1.674 102.348,1.674 C104.344,1.674 105.948,3.278 105.948,5.274 L105.948,5.587 L107.004,4.139 C106.456,2.026 104.578,0.5 102.348,0.5 C99.687,0.5 97.574,2.652 97.574,5.274 C97.535,6.252 97.848,7.191 98.357,7.935" id="Fill-12" sketch:type="MSShapeGroup"></path>
                <path d="M101.761,15.448 L101.761,7.23 L95.696,15.683 L94.303,15.683 L102.935,3.552 L102.935,11.809 L109,3.317 L110.392,3.317 L101.761,15.448" id="Fill-13" sketch:type="MSShapeGroup"></path>
                <path d="M120.538,15.448 L120.538,7.23 L114.473,15.683 L113.081,15.683 L121.712,3.552 L121.712,11.809 L127.777,3.317 L129.169,3.317 L120.538,15.448" id="Fill-14" sketch:type="MSShapeGroup"></path>
                <path d="M120.538,15.448 L120.538,7.23 L114.473,15.683 L113.081,15.683 L121.712,3.552 L121.712,11.809 L127.777,3.317 L129.169,3.317 L120.538,15.448" id="Fill-15" sketch:type="MSShapeGroup"></path>
                <path d="M147.944,3.317 L139.316,15.448 L139.316,5.204 L140.49,3.552 L140.49,11.809 L146.555,3.317 L147.944,3.317" id="Fill-16" sketch:type="MSShapeGroup"></path>
                <path d="M166.723,3.317 L158.091,15.448 L158.091,13.452 L164.774,4.096 L165.33,3.317 L166.723,3.317" id="Fill-17" sketch:type="MSShapeGroup"></path>
            </g>
            <g id="Imported-Layers" sketch:type="MSLayerGroup" transform="translate(-75.000000, 0.000000)">
                <path d="M82.984,15.448 L82.984,7.23 L76.919,15.683 L75.527,15.683 L84.158,3.552 L84.158,11.809 L90.223,3.317 L91.615,3.317 L82.984,15.448" id="Fill-2" sketch:type="MSShapeGroup"></path>
                <path d="M87.562,11.026 L86.819,12.083 C87.053,12.552 87.171,13.1 87.171,13.687 C87.171,15.683 85.567,17.287 83.571,17.287 C81.575,17.287 79.971,15.683 79.971,13.687 L79.971,13.374 L78.914,14.822 C79.423,16.935 81.34,18.5 83.571,18.5 C86.232,18.5 88.345,16.348 88.345,13.726 C88.345,12.709 88.071,11.809 87.562,11.026" id="Fill-3" sketch:type="MSShapeGroup"></path>
                <path d="M79.58,7.935 L80.323,6.878 C80.088,6.409 79.971,5.861 79.971,5.274 C79.932,3.278 81.575,1.674 83.571,1.674 C85.567,1.674 87.171,3.278 87.171,5.274 L87.171,5.587 L88.227,4.139 C87.68,2.026 85.801,0.5 83.571,0.5 C80.91,0.5 78.797,2.652 78.797,5.274 C78.758,6.252 79.071,7.191 79.58,7.935" id="Fill-4" sketch:type="MSShapeGroup"></path>
                <path d="M82.984,15.448 L82.984,7.23 L76.919,15.683 L75.527,15.683 L84.158,3.552 L84.158,11.809 L90.223,3.317 L91.615,3.317 L82.984,15.448" id="Fill-9" sketch:type="MSShapeGroup"></path>
                <path d="M87.562,11.026 L86.819,12.083 C87.053,12.552 87.171,13.1 87.171,13.687 C87.171,15.683 85.567,17.287 83.571,17.287 C81.575,17.287 79.971,15.683 79.971,13.687 L79.971,13.374 L78.914,14.822 C79.423,16.935 81.34,18.5 83.571,18.5 C86.232,18.5 88.345,16.348 88.345,13.726 C88.345,12.709 88.071,11.809 87.562,11.026" id="Fill-10" sketch:type="MSShapeGroup"></path>
                <path d="M101.761,15.448 L101.761,7.23 L95.696,15.683 L94.303,15.683 L102.935,3.552 L102.935,11.809 L109,3.317 L110.392,3.317 L101.761,15.448" id="Fill-11" sketch:type="MSShapeGroup"></path>
                <path d="M98.357,7.935 L99.1,6.878 C98.865,6.409 98.748,5.861 98.748,5.274 C98.709,3.278 100.352,1.674 102.348,1.674 C104.344,1.674 105.948,3.278 105.948,5.274 L105.948,5.587 L107.004,4.139 C106.456,2.026 104.578,0.5 102.348,0.5 C99.687,0.5 97.574,2.652 97.574,5.274 C97.535,6.252 97.848,7.191 98.357,7.935" id="Fill-12" sketch:type="MSShapeGroup"></path>
                <path d="M101.761,15.448 L101.761,7.23 L95.696,15.683 L94.303,15.683 L102.935,3.552 L102.935,11.809 L109,3.317 L110.392,3.317 L101.761,15.448" id="Fill-13" sketch:type="MSShapeGroup"></path>
                <path d="M120.538,15.448 L120.538,7.23 L114.473,15.683 L113.081,15.683 L121.712,3.552 L121.712,11.809 L127.777,3.317 L129.169,3.317 L120.538,15.448" id="Fill-14" sketch:type="MSShapeGroup"></path>
                <path d="M120.538,15.448 L120.538,7.23 L114.473,15.683 L113.081,15.683 L121.712,3.552 L121.712,11.809 L127.777,3.317 L129.169,3.317 L120.538,15.448" id="Fill-15" sketch:type="MSShapeGroup"></path>
                <path d="M147.944,3.317 L139.316,15.448 L139.316,5.204 L140.49,3.552 L140.49,11.809 L146.555,3.317 L147.944,3.317" id="Fill-16" sketch:type="MSShapeGroup"></path>
                <path d="M166.723,3.317 L158.091,15.448 L158.091,13.452 L164.774,4.096 L165.33,3.317 L166.723,3.317" id="Fill-17" sketch:type="MSShapeGroup"></path>
            </g>
        </g>
    </g>
</svg>
