<?xml version="1.0" encoding="UTF-8" standalone="no"?>
<svg width="542px" height="371px" viewBox="0 0 542 371" version="1.1" xmlns="http://www.w3.org/2000/svg" xmlns:xlink="http://www.w3.org/1999/xlink" xmlns:sketch="http://www.bohemiancoding.com/sketch/ns">
    <!-- Generator: Sketch 3.3.2 (12043) - http://www.bohemiancoding.com/sketch -->
    <title>Slice 1</title>
    <desc>Created with Sketch.</desc>
    <defs></defs>
    <g id="Page-1" stroke="none" stroke-width="1" fill="none" fill-rule="evenodd" sketch:type="MSPage">
        <g id="Imported-Layers" sketch:type="MSLayerGroup" transform="translate(1.000000, 1.000000)">
            <path d="M55.208,119.056 C42.708,132.251 -10.764,159.334 3.125,96.834 C17.013,34.334 66.319,3.779 94.097,1.001 C121.874,-1.777 156.97,11.71 109.053,106.154 C61.137,200.599 83.68,225.306 107.986,225.306 C149.5,225.306 202.924,168.924 233.354,83.313 C252.072,30.651 251.743,20.701 248.375,20.701 C242.832,20.701 235.105,39.229 216.319,94.056 C163,249.667 156.333,366.973 64.93,366.973 C20.333,366.973 11.667,342.68 11.667,328.333 C11.667,284.578 65.871,285.501 132,251 C189.106,221.207 256.465,155.888 289.25,121.25 C259.75,143.75 250.173,169.489 250.173,191.039 C250.173,207.75 267.667,221.14 289.983,221.14 C325.776,221.14 351.302,202.91 351.302,172.91 C351.302,143 346.514,117.5 323,117.5 C302.5,117.5 295,133.165 295,144.806 C295,159.181 304.75,165.5 326,165.5 C346.833,165.5 488.919,127.869 488.919,63.628 C488.919,31.993 454.683,12.868 377.039,12.868 C341.303,12.868 319.65,24.458 319.65,39.692 C319.65,89.616 537.834,119.5 537.834,214.003 C537.834,230.842 529.901,247.199 507.986,261.417 C403.771,329.03 351.473,328.703 289,328.703 C231.333,328.703 208.263,308.533 208.263,294.23 C208.263,281.311 227.823,269.571 276.058,268.322 C378.145,265.678 369.097,334.334 413.541,335.029 C457.986,335.723 494.313,238.976 408.897,241.754" id="Fill-1" fill="#FFFFFF" sketch:type="MSShapeGroup"></path>
            <path d="M55.208,119.056 C42.708,132.251 -10.764,159.334 3.125,96.834 C17.013,34.334 66.319,3.779 94.097,1.001 C121.874,-1.777 156.97,11.71 109.053,106.154 C61.137,200.599 83.68,225.306 107.986,225.306 C149.5,225.306 202.924,168.924 233.354,83.313 C252.072,30.651 251.743,20.701 248.375,20.701 C242.832,20.701 235.105,39.229 216.319,94.056 C163,249.667 156.333,366.973 64.93,366.973 C20.333,366.973 11.667,342.68 11.667,328.333 C11.667,284.578 65.871,285.501 132,251 C189.106,221.207 256.465,155.888 289.25,121.25 C259.75,143.75 250.173,169.489 250.173,191.039 C250.173,207.75 267.667,221.14 289.983,221.14 C325.776,221.14 351.302,202.91 351.302,172.91 C351.302,143 346.514,117.5 323,117.5 C302.5,117.5 295,133.165 295,144.806 C295,159.181 304.75,165.5 326,165.5 C346.833,165.5 488.919,127.869 488.919,63.628 C488.919,31.993 454.683,12.868 377.039,12.868 C341.303,12.868 319.65,24.458 319.65,39.692 C319.65,89.616 537.834,119.5 537.834,214.003 C537.834,230.842 529.901,247.199 507.986,261.417 C403.771,329.03 351.473,328.703 289,328.703 C231.333,328.703 208.263,308.533 208.263,294.23 C208.263,281.311 227.823,269.571 276.058,268.322 C378.145,265.678 369.097,334.334 413.541,335.029 C457.986,335.723 494.313,238.976 408.897,241.754" id="Stroke-2" stroke="#1A1918" stroke-width="3" stroke-linecap="round" stroke-linejoin="round" sketch:type="MSShapeGroup"></path>
        </g>
    </g>
</svg>