<?xml version="1.0" encoding="UTF-8" standalone="no"?>
<svg width="841px" height="638px" viewBox="0 0 841 638" version="1.1" xmlns="http://www.w3.org/2000/svg" xmlns:xlink="http://www.w3.org/1999/xlink" xmlns:sketch="http://www.bohemiancoding.com/sketch/ns">
    <!-- Generator: Sketch 3.3.2 (12043) - http://www.bohemiancoding.com/sketch -->
    <title>Imported Layers</title>
    <desc>Created with Sketch.</desc>
    <defs></defs>
    <g id="Page-1" stroke="none" stroke-width="1" fill="none" fill-rule="evenodd" sketch:type="MSPage">
        <path d="M155.555804,490.313435 L155.555804,490.313435 C153.216609,497.15732 144.293015,504.607626 127.225557,504.607626 C74.2904471,504.607626 10.9589163,460.945369 10.9589163,366.517077 C10.9589163,279.365827 76.8895523,205.036033 158.41482,205.036033 C213.429214,205.036033 244.878387,246.35924 244.878387,290.368022 C244.878387,337.582168 211.263293,378.472218 151.483872,378.472218 C91.7044522,378.472218 31.0586634,321.208822 31.0586634,227.38695 C31.0586634,141.102014 113.450299,52.0448721 224.432093,52.0448721 C327.703207,52.0448721 381.504685,95.6204971 381.504685,166.831558 C381.504685,242.634087 330.64886,310.726415 247.564129,310.726415 C177.215014,310.726415 148.624857,253.982808 148.624857,200.877723 C148.624857,112.600264 219.926977,22.4169123 322.504997,22.4169123 C362.098033,22.4169123 369.202254,42.0822541 369.202254,60.9679126 C369.202254,149.245372 172.709899,250.950707 172.709899,345.205737 C172.709899,373.187699 186.311883,388.867994 209.184009,388.867994 C305.437539,392.853041 494.305852,179.653015 494.305852,132.438868 C494.305852,125.161825 491.100289,118.837729 483.909431,118.837729 C420.404627,118.837729 343.124565,606.659487 126.359189,606.659487 C80.7882102,606.659487 45.7002896,586.907514 45.7002896,544.198204 C45.7002896,483.382918 124.106631,456.440533 223.998908,435.648983 C313.581402,417.023218 424.99638,373.967382 516.484884,264.378584 C490.407195,291.840757 475.332384,311.072941 475.332384,354.215409 C475.332384,394.065881 503.662631,420.575108 546.114683,420.575108 C594.284767,420.575108 648.692703,384.969578 648.692703,308.127472 C648.692703,245.319662 611.438861,231.112103 586.487451,231.112103 C549.926704,231.112103 519.60381,255.802069 519.60381,295.132752 C519.60381,332.90407 545.768136,360.539506 594.19813,360.539506 C662.294687,360.539506 723.893481,313.238728 723.893481,231.285365 C723.893481,137.723387 608.926393,8.20935269 444.229758,8.20935269 C335.673796,8.20935269 302.318613,65.0395913 302.318613,97.2664949 C302.318613,249.651235 759.327949,105.84301 759.327949,238.475777 C759.327949,280.492036 713.410423,302.66969 678.842324,302.66969 C611.958682,302.66969 556.597741,271.049206 556.597741,194.2071 C556.597741,143.874221 603.554909,93.0215533 679.708692,93.0215533 C749.191439,93.0215533 830.110248,144.827167 830.110248,277.979723 C830.110248,412.605014 723.027113,538.65379 547.154325,538.65379 C458.351563,538.65379 381.677959,476.539032 280.139581,476.539032 C200.260414,476.539032 174.529272,519.07508 174.529272,553.294507 C174.529272,588.380249 199.653956,629.530193 273.381908,629.530193 C387.13608,629.530193 490.147284,474.113351 578.950046,474.113351 C626.513672,474.113351 648.519429,506.253624 648.519429,533.196008 C648.519429,577.984474 591.772299,620.173995 510.506942,620.173995 C406.802643,620.173995 354.560628,585.001622 354.560628,527.564963 C354.560628,484.68239 388.348996,463.37105 434.959616,463.37105 C548.280604,463.37105 574.271657,581.363101 671.131645,581.363101 C746.41906,581.363101 789.304296,528.084752 789.304296,469.002095 C789.304296,406.800706 751.790544,370.068966 706.219566,370.068966 C686.379729,370.068966 674.337208,379.078638 674.337208,393.112935 C674.337208,404.115131 680.575061,411.218911 692.444308,411.218911 C701.367902,411.218911 712.717329,400.389978 706.046292,386.87547" id="Imported-Layers" stroke="#000000" sketch:type="MSShapeGroup"></path>
    </g>
</svg>